<svg width="29" height="29" viewBox="0 0 29 29" fill="none" xmlns="http://www.w3.org/2000/svg">
<g clip-path="url(#clip0_44_143)">
<path d="M9.81774 5.18579C9.70494 5.29848 9.61545 5.43229 9.5544 5.57958C9.49334 5.72688 9.46191 5.88476 9.46191 6.04421C9.46191 6.20365 9.49334 6.36154 9.5544 6.50883C9.61545 6.65612 9.70494 6.78994 9.81774 6.90263L13.6391 10.724C13.7518 10.8368 13.8856 10.9263 14.0329 10.9873C14.1802 11.0484 14.3381 11.0798 14.4975 11.0798C14.657 11.0798 14.8148 11.0484 14.9621 10.9873C15.1094 10.9263 15.2432 10.8368 15.3559 10.724L19.1773 6.90263C19.2901 6.78994 19.3796 6.65612 19.4406 6.50883C19.5017 6.36154 19.5331 6.20365 19.5331 6.04421C19.5331 5.88476 19.5017 5.72688 19.4406 5.57958C19.3796 5.43229 19.2901 5.29848 19.1773 5.18579L15.3559 1.36443C15.2432 1.25163 15.1094 1.16214 14.9621 1.10109C14.8148 1.04003 14.657 1.00861 14.4975 1.00861C14.3381 1.00861 14.1802 1.04003 14.0329 1.10109C13.8856 1.16214 13.7518 1.25163 13.6391 1.36443L9.81774 5.18579Z" stroke="#FFBDD9" stroke-width="2" stroke-linecap="round" stroke-linejoin="round"/>
</g>
<g clip-path="url(#clip1_44_143)">
<path d="M18.2762 13.6441C18.1634 13.7568 18.0739 13.8906 18.0129 14.0379C17.9518 14.1852 17.9204 14.3431 17.9204 14.5025C17.9204 14.662 17.9518 14.8198 18.0129 14.9671C18.0739 15.1144 18.1634 15.2483 18.2762 15.3609L22.0976 19.1823C22.2103 19.2951 22.3441 19.3846 22.4914 19.4456C22.6387 19.5067 22.7966 19.5381 22.956 19.5381C23.1155 19.5381 23.2733 19.5067 23.4206 19.4456C23.5679 19.3846 23.7017 19.2951 23.8144 19.1823L27.6358 15.3609C27.7486 15.2483 27.8381 15.1144 27.8991 14.9671C27.9602 14.8198 27.9916 14.662 27.9916 14.5025C27.9916 14.3431 27.9602 14.1852 27.8991 14.0379C27.8381 13.8906 27.7486 13.7568 27.6358 13.6441L23.8144 9.82275C23.7017 9.70994 23.5679 9.62046 23.4206 9.5594C23.2733 9.49834 23.1155 9.46692 22.956 9.46692C22.7966 9.46692 22.6387 9.49834 22.4914 9.5594C22.3441 9.62046 22.2103 9.70994 22.0976 9.82275L18.2762 13.6441Z" stroke="#FFBDD9" stroke-width="2" stroke-linecap="round" stroke-linejoin="round"/>
</g>
<g clip-path="url(#clip2_44_143)">
<path d="M9.81774 22.1025C9.70494 22.2152 9.61545 22.349 9.5544 22.4963C9.49334 22.6436 9.46191 22.8014 9.46191 22.9609C9.46191 23.1203 9.49334 23.2782 9.5544 23.4255C9.61545 23.5728 9.70494 23.7066 9.81774 23.8193L13.6391 27.6407C13.7518 27.7535 13.8856 27.843 14.0329 27.904C14.1802 27.9651 14.3381 27.9965 14.4975 27.9965C14.657 27.9965 14.8148 27.9651 14.9621 27.904C15.1094 27.843 15.2432 27.7535 15.3559 27.6407L19.1773 23.8193C19.2901 23.7066 19.3796 23.5728 19.4406 23.4255C19.5017 23.2782 19.5331 23.1203 19.5331 22.9609C19.5331 22.8014 19.5017 22.6436 19.4406 22.4963C19.3796 22.349 19.2901 22.2152 19.1773 22.1025L15.3559 18.2811C15.2432 18.1683 15.1094 18.0788 14.9621 18.0178C14.8148 17.9567 14.657 17.9253 14.4975 17.9253C14.3381 17.9253 14.1802 17.9567 14.0329 18.0178C13.8856 18.0788 13.7518 18.1683 13.6391 18.2811L9.81774 22.1025Z" stroke="#FFBDD9" stroke-width="2" stroke-linecap="round" stroke-linejoin="round"/>
</g>
<g clip-path="url(#clip3_44_143)">
<path d="M1.35949 13.6441C1.24669 13.7568 1.1572 13.8906 1.09614 14.0379C1.03509 14.1852 1.00366 14.3431 1.00366 14.5025C1.00366 14.662 1.03509 14.8198 1.09614 14.9671C1.1572 15.1144 1.24669 15.2483 1.35949 15.3609L5.18084 19.1823C5.29353 19.2951 5.42735 19.3846 5.57464 19.4456C5.72193 19.5067 5.87982 19.5381 6.03926 19.5381C6.19871 19.5381 6.35659 19.5067 6.50389 19.4456C6.65118 19.3846 6.785 19.2951 6.89768 19.1823L10.719 15.3609C10.8318 15.2483 10.9213 15.1144 10.9824 14.9671C11.0434 14.8198 11.0749 14.662 11.0749 14.5025C11.0749 14.3431 11.0434 14.1852 10.9824 14.0379C10.9213 13.8906 10.8318 13.7568 10.719 13.6441L6.89768 9.82275C6.785 9.70994 6.65118 9.62046 6.50389 9.5594C6.35659 9.49834 6.19871 9.46692 6.03926 9.46692C5.87982 9.46692 5.72193 9.49834 5.57464 9.5594C5.42735 9.62046 5.29353 9.70994 5.18084 9.82275L1.35949 13.6441Z" stroke="#FFBDD9" stroke-width="2" stroke-linecap="round" stroke-linejoin="round"/>
</g>
<defs>
<clipPath id="clip0_44_143">
<rect width="12.0833" height="12.0833" fill="white" transform="translate(8.45825)"/>
</clipPath>
<clipPath id="clip1_44_143">
<rect width="12.0833" height="12.0833" fill="white" transform="translate(16.9167 8.45831)"/>
</clipPath>
<clipPath id="clip2_44_143">
<rect width="12.0833" height="12.0833" fill="white" transform="translate(8.45825 16.9167)"/>
</clipPath>
<clipPath id="clip3_44_143">
<rect width="12.0833" height="12.0833" fill="white" transform="translate(0 8.45831)"/>
</clipPath>
</defs>
</svg>
